<?xml version="1.0" standalone="no"?><!DOCTYPE svg PUBLIC "-//W3C//DTD SVG 1.1//EN" "http://www.w3.org/Graphics/SVG/1.1/DTD/svg11.dtd"><svg t="1500103837158" class="icon" style="" viewBox="0 0 1024 1024" version="1.1" xmlns="http://www.w3.org/2000/svg" p-id="9246" xmlns:xlink="http://www.w3.org/1999/xlink" width="200" height="200"><defs><style type="text/css"></style></defs><path d="M637.513474 560.754676c0-141.922639-1.023973-283.870877 0.870377-425.793516 0.38399-28.364048-10.751715-34.71268-34.021499-34.687081-47.614738 0.051199-95.255076-0.972774-142.844214 0.409589-20.530656 0.614384-26.4185-5.478255-26.290504-26.188106 0.460788-71.345309-0.38399-71.294111 71.524505-71.242912C665.186341 3.406246 823.594943 3.969431 982.003545 3.22705c22.732198-0.102397 30.156001 6.067039 29.260025 29.336823-2.585531 66.507038-1.663956 66.43024-69.015772 66.481438-57.700871 0.025599-115.376143 0.281593-173.077013 0.511987-35.83905 0.153596-35.890249 0.230394-35.890249 35.019872l-0.38399 851.612632c-0.025599 37.631003-0.051199 37.631003-37.144615 37.195814-57.188884-0.691182-57.34248-0.691182-57.393679-58.801641-0.102397-134.601233-0.025599-269.228065-0.0256-403.829299h-0.819178z" fill="#F3720D" p-id="9247"></path><path d="M1007.039681 642.595707c0.179195 8.754968-5.606251 10.521321-10.214129 13.183651-18.969097 10.93091-38.245386 21.298636-56.856093 32.81833-10.828513 6.707022-14.975603 3.071919-20.76105-7.039813a20971.553054 20971.553054 0 0 0-158.255006-273.22156c-8.908564-15.078-3.711902-21.247437 8.114985-27.775264 7.193409-3.967895 14.540415-7.679796 21.682625-11.724489 51.582633-29.157627 40.626123-31.589563 71.396508 20.172265 44.926809 75.569197 83.172196 155.003892 131.580513 228.576343 5.452656 8.29418 9.394951 17.586734 13.311647 25.010537zM431.003746 263.751347c1.279966-56.24171-24.14016-76.849163-71.908494-76.490773-23.039389 0.179195-38.85977 0.998374-63.102328 0.307191-17.433138-0.511986-24.90814-4.198289-24.165759-22.885793 1.228767-30.1816 0.281593-60.439998 0.204794-90.647198-0.179195-77.463547-0.179195-77.105157-79.2299-72.138888-15.410792 0.921576-22.860194 6.78382-22.399407 22.092214 0.844778 28.364048 7.423803 140.335481-6.886217 156.719047-9.42055 10.802914-46.616365 8.345379-71.7037 8.934164-58.827241 1.407963-77.130756 20.197865-77.847537 78.333924-0.972774 79.306698-2.815925 352.425861 0.870377 418.830501 2.739127 49.099499 24.370554 74.161235 73.751645 75.697194 21.964218 0.691182 43.979635 0.511986 65.918254-0.230394 13.644438-0.460788 20.121067 3.865498 19.941871 18.559508-0.511986 42.110884-0.486387 84.272967 0.153596 126.383851 0.230394 15.078-4.91507 21.580228-20.633053 20.863447-21.938619-0.998374-43.954035-0.460788-65.918253-0.435189-77.233153 0.051199-76.849163 0.076798-73.162861 77.233154 0.691182 14.079627 4.710275 19.173892 19.071494 19.122693 109.897888-0.435188 219.795775 0.358391 329.693663-0.588784 41.701295-0.358391 65.047876-26.213705 66.04625-68.426987 0.204795-8.242982-0.025599-16.485963 0.076798-24.728945 0.793579-65.66226 0.691182-69.578956-64.971078-66.225445-29.208826 1.51036-34.687081 6.553426-32.792731 34.687081 0.307192 4.53108 0.307192 9.266954 0.435188 13.670038 0.38399 13.158051-0.972774 14.540415-12.44127 15.666785-8.191783 0.793579-19.788276 0.255993-27.954459 0.255993-21.068242 0-20.633053-6.886218-21.401033-25.496925-1.587158-38.424582 0.76798-76.23478 0-115.376142-0.38399-18.738703 4.633477-24.14016 24.268157-25.368928 23.704972-1.484761 46.206776-1.203168 69.092569-1.945548 46.744361-3.660703 66.43024-24.677746 66.532637-67.787004 0.204795-71.422107 0.051199-142.869814 0.051198-214.291921h0.537586c0-71.422107 0.38399-142.869814-0.127997-214.291921zM159.471742 666.300679c-20.197865 1.049572-39.576551-0.102397-46.001981-24.063362-2.303939-8.626971-1.612757-18.149919-1.561559-27.263278l0.076798-13.542041c-1.612757-80.125877-2.841525-250.92455-3.455908-265.516164-2.713528-10.470123-1.86875-19.455484 1.356764-26.879287 3.942296-19.839474 15.922778-23.832968 38.091791-23.960966a60.670392 60.670392 0 0 1 12.185277 0.179196c4.198289 0.127997 6.988615 1.331165 8.806166 3.199915 5.478255 4.607878 2.918323 12.927657 2.969522 19.557882 0.38399 55.806521 0.204795 111.638642 0.204794 167.445162h1.382364c0 53.988969 0.460788 107.977939-0.40959 161.941309-0.127997 10.521321 8.729369 27.749665-13.644438 28.901634z m148.783257-1.331165c-27.468072 7.398204-36.453434 0.588784-36.504632-27.980058-0.102397-54.040168-0.025599-108.105935-0.0256-162.146103h0.537586c0-54.040168-0.255993-108.105935 0.204795-162.146103 0.102397-11.212503-6.886218-27.314476 15.359593-27.57047 19.455484-0.204795 37.247013 1.254367 43.877237 23.679373 1.254367 4.275087 0.895976 9.087759 0.895976 13.644438 0.153596 101.680505 0.127997 203.38661 0.511987 305.067116 0.076798 18.610707-5.580652 32.255145-24.856942 37.451807z" fill="#F3720D" p-id="9248"></path></svg>