<?xml version="1.0" standalone="no"?><!DOCTYPE svg PUBLIC "-//W3C//DTD SVG 1.1//EN" "http://www.w3.org/Graphics/SVG/1.1/DTD/svg11.dtd"><svg t="1500103861273" class="icon" style="" viewBox="0 0 1335 1024" version="1.1" xmlns="http://www.w3.org/2000/svg" p-id="9473" xmlns:xlink="http://www.w3.org/1999/xlink" width="260.7421875" height="200"><defs><style type="text/css"></style></defs><path d="M551.3 1024h651.92c1.004 0 2.004-0.022 3.005-0.038h-657.929c1.001 0.017 2 0.038 3.005 0.038z" fill="#ff5500" p-id="9474"></path><path d="M1141.48 837.979v-651.958c0-102.312-83.709-186.021-186.021-186.021h-651.92c-102.312 0-186.021 83.709-186.021 186.021v651.958c0 101.308 82.077 184.363 183.016 185.983h657.929c100.939-1.622 183.016-84.677 183.016-185.983zM280.052 259.228c4.009-8.882 9.554-16.454 16.683-22.692 7.11-7.109 15.346-12.447 24.692-16.010 9.346-3.545 19.355-5.337 30.029-5.337 10.674 0 20.892 1.792 30.7 5.337 9.783 3.563 18.228 8.902 25.358 16.010 7.109 6.238 12.674 13.81 16.683 22.692 4.001 8.909 6.007 18.246 6.007 28.029 0 9.801-2 19.145-6.007 28.029-4.002 8.907-9.574 16.474-16.683 22.69-7.13 6.236-15.582 11.346-25.358 15.346-9.801 4.009-20.026 6.009-30.7 6.009-10.674 0-20.683-2-30.029-6.009-9.346-4.001-17.582-9.11-24.692-15.346-7.129-6.216-12.674-13.783-16.683-22.69-4.001-8.884-6.001-18.228-6.001-28.029 0-9.783 2-19.12 6.001-28.029zM430.869 572.864c-4.009 22.248-12.682 45.839-26.028 70.738v-0.007c-9.801 17.81-18.019 34.493-24.692 50.048-6.673 15.582-13.138 30.493-19.354 44.711-6.238 14.245-12.238 28.029-18.019 41.375-5.794 13.346-11.801 26.692-18.012 40.039-9.801-7.11-19.811-14.454-30.029-22.020-10.245-7.547-20.69-15.346-31.365-23.356-9.801-7.11-19.811-14.454-30.029-22.020-10.238-7.554-20.69-14.891-31.365-22.021 11.554-8.889 23.356-17.562 35.367-26.027 12.010-8.446 23.791-16.683 35.366-24.692 11.554-8.882 22.899-17.784 34.036-26.692 11.111-8.882 21.12-18.228 30.029-28.029 18.683-18.683 28.029-36.473 28.029-53.385 0-16.891-5.337-32.902-16.019-48.048-11.573-15.118-27.356-29.565-47.376-43.375-20.019-13.782-41.603-26.901-64.731-39.366 4.444-5.337 8.882-10.453 13.346-15.346 4.444-4.881 8.882-10.010 13.346-15.355 4.444-5.337 9.117-10.674 14.012-16.010 4.88-5.337 9.553-10.218 14.017-14.682 37.366 21.356 66.731 42.704 88.087 64.058 21.349 21.356 36.030 42.711 44.039 64.067 8.882 21.349 11.346 43.167 7.345 65.395zM1056.132 543.499c-0.893 24.921-2.229 49.176-4.001 72.74-1.792 23.584-4.464 47.376-8.009 71.404h0.007c-3.565 26.692-9.339 48.048-17.347 64.058-8.009 16.019-18.248 28.484-30.701 37.374-11.573 8.9-25.148 14.903-40.703 18.011-15.575 3.128-32.258 4.673-50.048 4.673-13.346 0.899-26.484 1.336-39.375 1.336h-38.032c-13.346 0-26.484-0.209-39.373-0.664-12.909-0.437-26.028-0.672-39.375-0.672 0-3.545-0.227-7.337-0.664-11.339-0.457-4.007-0.666-7.781-0.666-11.344-0.899-4.446-1.335-8.446-1.335-12.018 0-3.545-0.464-7.546-1.336-12.010h24.020c8.009 0 16.019 0.464 24.021 1.336h25.363c8.009 0 16.012-0.437 24.020-1.336 16.019-0.879 30.029-3.108 42.041-6.673 12.017-3.552 22.026-9.344 30.029-17.353 8.008-8.009 14.017-18.683 18.017-32.029 4.009-13.346 6.009-29.802 6.009-49.384l4.001-152.145c0.881-20.456 1.336-41.146 1.336-62.058 0-20.9-2.229-40.247-6.673-58.058-5.337-17.79-13.575-32.91-24.692-45.375-11.131-12.454-27.356-20.9-48.712-25.363-16.012-3.545-32.029-5.11-48.048-4.666-16.010 0.455-32.485 1.563-49.376 3.337-16.019 0.893-32.036 2.456-48.048 4.666-16.019 2.234-32.493 3.799-49.384 4.671-2.671 0-5.565 0.464-8.673 1.336-3.128 0.899-6.465 1.336-10.010 1.336-2.671 0.899-5.565 1.792-8.673 2.671-3.128 0.894-6.465 1.793-10.010 2.666l50.712 38.709-41.373 38.702h256.249v50.721h-152.152v58.722h152.152v41.375h-152.145v102.767c6.211-1.772 12.218-3.337 18.012-4.671 5.781-1.336 11.781-2.444 18.019-3.337 6.216-1.78 12.225-3.11 18.017-4.009 5.774-0.879 11.783-2.209 18.019-4.001-2.671-2.673-4.9-5.781-6.673-9.346-1.798-3.552-4.007-6.673-6.68-9.344-1.792-3.545-3.792-6.882-6.001-10.010-2.235-3.11-4.237-6.446-6.009-10.010 4.444-1.773 9.117-3.545 14.017-5.338 4.875-1.778 10.010-4.007 15.348-6.673 4.444-1.772 9.344-3.545 14.681-5.343 5.338-1.772 10.218-3.545 14.682-5.337 11.554 7.135 21.356 14.911 29.358 23.356 8.009 8.465 14.225 17.582 18.69 27.363 4.438 9.801 7.337 20.019 8.673 30.695 1.336 10.68 0.666 22.255-2 34.702-4.464 4.463-8.909 8.673-13.346 12.681-4.464 4.002-8.909 7.794-13.346 11.339-5.343 3.572-10.245 7.344-14.682 11.346-4.464 4.007-8.909 7.801-13.346 11.346-2.671-3.545-5.128-7.554-7.344-12.012-2.229-4.444-4.673-8.889-7.339-13.346-2.671-3.55-5.128-7.552-7.344-12.017-2.229-4.438-4.666-8.882-7.337-13.346-69.404 25.82-128.791 42.94-178.173 51.385-49.378 8.465-88.751 8.673-118.115 0.666-29.358-8.884-48.503-25.793-57.385-50.714-8.902-24.901-7.574-58.722 4.001-101.433h101.433c0 16.911 0.879 30.486 2.671 40.711 1.773 10.237 4.438 18.474 8.009 24.685 4.438 5.343 9.774 9.135 16.012 11.344 6.216 2.235 13.788 3.8 22.69 4.673h5.338v-118.779h-150.81v-40.039h150.815v-61.394h-29.363v-8.009l-62.73 60.058-54.719-26.692 105.44-136.126c-11.574 4.458-22.483 9.801-32.702 16.010-10.238 6.238-20.248 12.911-30.029 20.019-8.902 7.137-17.347 14.682-25.356 22.692-8.009 8.009-15.582 16.474-22.692 25.363-0.899 2.666-1.792 5.128-2.671 7.337-0.893 2.229-1.792 4.673-2.666 7.339-0.899 1.798-2 3.799-3.337 6.007-1.336 2.229-2.462 4.673-3.337 7.339-7.135-5.337-13.808-10.447-20.019-15.346-6.236-4.881-12.909-9.548-20.026-14.012-6.229-4.444-12.674-9.117-19.347-14.017-6.673-4.875-13.575-10.010-20.692-15.346 10.682-16.891 21.564-33.574 32.702-50.048 11.117-16.456 22.020-33.139 32.7-50.048 10.675-16.012 21.564-32.239 32.695-48.714 11.117-16.454 22.020-33.137 32.702-50.048 8.882 2.673 18.011 5.565 27.356 8.675 9.346 3.128 18.454 6.007 27.363 8.673 8.884 2.671 18.012 5.572 27.358 8.68 9.344 3.128 18.454 6.002 27.356 8.673-2.664 5.337-4.9 10.467-6.673 15.346-1.792 4.901-4.001 9.574-6.673 14.012-1.792 5.343-3.792 10.472-6.007 15.353-2.229 4.9-4.231 9.566-6.002 14.010 42.704-19.562 89.858-34.029 141.471-43.375 51.593-9.344 100.096-11.344 145.472-6.007 44.483 4.464 82.521 17.81 114.107 40.039 31.574 22.255 49.156 55.183 52.721 98.767 2.673 28.484 4.216 55.614 4.673 81.413 0.435 25.812 0.209 51.176-0.672 76.068z" fill="#ff5500" p-id="9475"></path></svg>